<?xml version="1.0" standalone="no"?>
<!DOCTYPE svg PUBLIC "-//W3C//DTD SVG 20010904//EN"
 "http://www.w3.org/TR/2001/REC-SVG-20010904/DTD/svg10.dtd">
<svg version="1.0" xmlns="http://www.w3.org/2000/svg"
 width="128.000000pt" height="128.000000pt" viewBox="0 0 128.000000 128.000000"
 preserveAspectRatio="xMidYMid meet">
<metadata>
Created by potrace 1.14, written by Peter Selinger 2001-2017
</metadata>
<g transform="translate(0.000000,128.000000) scale(0.100000,-0.100000)"
fill="#000000" stroke="none">
<path d="M210 1040 c0 -5 3 -10 8 -11 51 -5 125 -36 116 -50 -3 -5 0 -9 5 -9
21 0 53 -42 48 -61 -4 -16 -3 -18 8 -9 10 9 15 6 21 -12 4 -13 7 -27 6 -31 -1
-5 2 -6 7 -3 11 7 33 -18 24 -27 -3 -4 -1 -7 6 -7 8 0 11 -6 7 -16 -3 -8 -2
-13 3 -10 12 8 44 -42 36 -55 -4 -5 -1 -8 6 -7 6 2 14 -3 17 -11 3 -9 0 -11
-8 -6 -9 5 -11 4 -6 -4 4 -6 11 -9 15 -7 4 3 17 -8 29 -23 16 -22 18 -31 9
-40 -9 -9 -7 -10 8 -5 23 9 27 15 -55 -91 -30 -38 -62 -77 -72 -86 -10 -9 -18
-19 -18 -23 0 -7 -25 -38 -62 -77 -15 -16 -24 -29 -20 -29 3 0 -4 -7 -16 -16
-12 -8 -27 -12 -34 -8 -6 4 -8 3 -5 -3 9 -14 -35 -43 -68 -45 -37 -3 -31 -28
8 -29 44 -1 141 -1 205 0 57 1 70 16 22 26 -38 8 -55 37 -39 67 12 23 140 189
171 222 10 11 18 23 18 28 0 4 5 8 11 8 6 0 8 -7 5 -16 -3 -8 -2 -13 3 -10 8
5 62 -66 60 -80 0 -3 8 -12 18 -21 10 -8 11 -11 3 -7 -8 4 -5 -3 7 -15 27 -25
74 -104 77 -128 3 -21 -20 -47 -34 -38 -5 3 -10 1 -10 -4 0 -6 -7 -11 -15 -11
-8 0 -15 -4 -15 -10 0 -10 38 -13 118 -10 24 1 50 -4 59 -12 14 -11 15 -11 9
0 -6 10 -1 13 20 12 63 -4 144 0 144 8 0 5 -18 14 -39 20 -51 16 -84 54 -219
255 -101 150 -112 170 -100 187 12 17 117 153 157 203 44 57 105 107 141 118
22 7 40 16 40 21 0 4 -65 8 -145 8 -90 0 -145 -4 -145 -10 0 -5 6 -10 13 -11
49 -3 77 -21 72 -47 -2 -9 -4 -20 -4 -23 -1 -3 -9 -14 -19 -25 -9 -10 -25 -32
-35 -47 -10 -15 -22 -25 -27 -22 -5 3 -12 0 -16 -6 -4 -8 -3 -9 4 -5 19 11 14
-9 -6 -27 -10 -10 -22 -14 -27 -10 -4 5 -5 2 0 -6 4 -7 4 -16 -1 -20 -5 -3
-18 -19 -28 -34 l-18 -29 -55 79 c-93 132 -107 161 -95 187 6 14 23 26 41 29
17 4 31 11 31 17 0 6 -67 10 -190 10 -120 0 -190 -4 -190 -10z"/>
<path d="M817 979 c7 -7 15 -10 18 -7 3 3 -2 9 -12 12 -14 6 -15 5 -6 -5z"/>
<path d="M333 945 c0 -8 4 -12 9 -9 5 3 6 10 3 15 -9 13 -12 11 -12 -6z"/>
<path d="M470 766 c0 -2 7 -7 16 -10 8 -3 12 -2 9 4 -6 10 -25 14 -25 6z"/>
</g>
</svg>
